<svg xmlns="http://www.w3.org/2000/svg" width="1032" height="758" viewBox="0 0 1032 758"><rect width="100%" height="100%" fill="#FFFFFF"/><defs><marker id="arrow-0" viewBox="0 0 10 10" refX="5" refY="5" markerUnits="userSpaceOnUse" markerWidth="8" markerHeight="8" orient="auto"><path d="M 0 0 L 10 5 L 0 10 z" fill="#0288d1"/></marker><marker id="arrow-start-0" viewBox="0 0 10 10" refX="4.5" refY="5" markerUnits="userSpaceOnUse" markerWidth="8" markerHeight="8" orient="auto"><path d="M 0 5 L 10 10 L 10 0 z" fill="#0288d1"/></marker></defs><path d="M 761.400,78.000C761.400,89.667,761.400,107.167,761.400,113.000C761.400,118.833,761.400,107.167,761.400,113.000C761.400,118.833,761.400,136.333,761.400,148.000" fill="none" stroke="#0288d1" stroke-width="2"    stroke-linecap="round" stroke-linejoin="round" /><path d="M 186.600,78.000C186.600,89.667,197.900,107.167,186.600,113.000C175.300,118.833,130.100,107.167,118.800,113.000C107.500,118.833,118.800,136.333,118.800,148.000" fill="none" stroke="#0288d1" stroke-width="2" marker-end="url(#arrow-0)"   stroke-linecap="round" stroke-linejoin="round" /><path d="M 225.000,78.000C225.000,89.667,201.100,107.167,225.000,113.000C248.900,118.833,344.500,107.167,368.400,113.000C392.300,118.833,368.400,136.333,368.400,148.000" fill="none" stroke="#0288d1" stroke-width="2" marker-end="url(#arrow-0)"   stroke-linecap="round" stroke-linejoin="round" /><path d="M 667.200,326.000C667.200,337.667,670.000,355.167,667.200,361.000C664.400,366.833,653.200,355.167,650.400,361.000C647.600,366.833,650.400,384.333,650.400,396.000" fill="none" stroke="#0288d1" stroke-width="2" marker-end="url(#arrow-0)"   stroke-linecap="round" stroke-linejoin="round" /><path d="M 884.400,326.000C884.400,337.667,914.200,355.167,884.400,361.000C854.600,366.833,735.400,355.167,705.600,361.000C675.800,366.833,705.600,384.333,705.600,396.000" fill="none" stroke="#0288d1" stroke-width="2" marker-end="url(#arrow-0)"   stroke-linecap="round" stroke-linejoin="round" /><path d="M 118.800,202.000C118.800,213.667,118.800,231.167,118.800,237.000C118.800,242.833,118.800,231.167,118.800,237.000C118.800,242.833,118.800,260.333,118.800,272.000" fill="none" stroke="#0288d1" stroke-width="2" marker-end="url(#arrow-0)"   stroke-linecap="round" stroke-linejoin="round" /><path d="M 368.400,202.000C368.400,213.667,368.400,231.167,368.400,237.000C368.400,242.833,368.400,231.167,368.400,237.000C368.400,242.833,368.400,260.333,368.400,272.000" fill="none" stroke="#0288d1" stroke-width="2" marker-end="url(#arrow-0)"   stroke-linecap="round" stroke-linejoin="round" /><path d="M 636.600,450.000C636.600,461.667,658.700,479.167,636.600,485.000C614.500,490.833,526.100,479.167,504.000,485.000C481.900,490.833,504.000,508.333,504.000,520.000" fill="none" stroke="#0288d1" stroke-width="2" marker-end="url(#arrow-0)"   stroke-linecap="round" stroke-linejoin="round" /><path d="M 678.000,450.000C678.000,461.667,676.200,479.167,678.000,485.000C679.800,490.833,687.000,479.167,688.800,485.000C690.600,490.833,688.800,508.333,688.800,520.000" fill="none" stroke="#0288d1" stroke-width="2" marker-end="url(#arrow-0)"   stroke-linecap="round" stroke-linejoin="round" /><path d="M 118.800,326.000C118.800,337.667,107.900,355.167,118.800,361.000C129.700,366.833,173.300,355.167,184.200,361.000C195.100,366.833,184.200,384.333,184.200,396.000" fill="none" stroke="#0288d1" stroke-width="2" marker-end="url(#arrow-0)"   stroke-linecap="round" stroke-linejoin="round" /><path d="M 368.400,326.000C368.400,337.667,391.900,355.167,368.400,361.000C344.900,366.833,250.900,355.167,227.400,361.000C203.900,366.833,227.400,384.333,227.400,396.000" fill="none" stroke="#0288d1" stroke-width="2" marker-end="url(#arrow-0)"   stroke-linecap="round" stroke-linejoin="round" /><path d="M 205.800,450.000C205.800,461.667,205.800,479.167,205.800,485.000C205.800,490.833,205.800,479.167,205.800,485.000C205.800,490.833,205.800,508.333,205.800,520.000" fill="none" stroke="#0288d1" stroke-width="2" marker-end="url(#arrow-0)"   stroke-linecap="round" stroke-linejoin="round" /><path d="M 688.800,574.000C688.800,585.667,727.100,603.167,688.800,609.000C650.500,614.833,497.300,603.167,459.000,609.000C420.700,614.833,459.000,632.333,459.000,644.000" fill="none" stroke="#0288d1" stroke-width="2" marker-end="url(#arrow-0)"   stroke-linecap="round" stroke-linejoin="round" /><path d="M 205.800,574.000C205.800,585.667,172.000,603.167,205.800,609.000C239.600,614.833,374.800,603.167,408.600,609.000C442.400,614.833,408.600,632.333,408.600,644.000" fill="none" stroke="#0288d1" stroke-width="2" marker-end="url(#arrow-0)"   stroke-linecap="round" stroke-linejoin="round" /><path d="M 719.400,450.000C719.400,461.667,691.900,479.167,719.400,485.000C746.900,490.833,856.900,479.167,884.400,485.000C911.900,490.833,884.400,508.333,884.400,520.000" fill="none" stroke="#0288d1" stroke-width="2" marker-end="url(#arrow-0)"   stroke-linecap="round" stroke-linejoin="round" /><rect x="24.00" y="148.00" width="189.60" height="54.00" rx="0" ry="0" fill="#e8f5e9" stroke="#2e7d32" stroke-width="2" stroke-linejoin="round" stroke-linecap="round"/><text x="118.80" y="179.00" text-anchor="middle" font-family="arial, helvetica, sans-serif" font-size="16" fill="#01579b"><tspan x="118.80" dy="0.00">Acoustic Tokenizer</tspan></text><rect x="136.20" y="24.00" width="139.20" height="54.00" rx="0" ry="0" fill="#e3f2fd" stroke="#0288d1" stroke-width="2" stroke-linejoin="round" stroke-linecap="round"/><text x="205.80" y="55.00" text-anchor="middle" font-family="arial, helvetica, sans-serif" font-size="16" fill="#01579b"><tspan x="205.80" dy="0.00">Audio Input</tspan></text><rect x="346.20" y="644.00" width="175.20" height="54.00" rx="0" ry="0" fill="#e8eaf6" stroke="#455a64" stroke-width="2" stroke-linejoin="round" stroke-linecap="round"/><text x="433.80" y="675.00" text-anchor="middle" font-family="arial, helvetica, sans-serif" font-size="16" fill="#01579b"><tspan x="433.80" dy="0.00">Model Checkpoint</tspan></text><rect x="24.00" y="272.00" width="189.60" height="54.00" rx="0" ry="0" fill="#fce4ec" stroke="#c62828" stroke-width="2" stroke-linejoin="round" stroke-linecap="round"/><text x="118.80" y="303.00" text-anchor="middle" font-family="arial, helvetica, sans-serif" font-size="16" fill="#01579b"><tspan x="118.80" dy="0.00">Acoustic Connector</tspan></text><rect x="273.60" y="272.00" width="189.60" height="54.00" rx="0" ry="0" fill="#fce4ec" stroke="#c62828" stroke-width="2" stroke-linejoin="round" stroke-linecap="round"/><text x="368.40" y="303.00" text-anchor="middle" font-family="arial, helvetica, sans-serif" font-size="16" fill="#01579b"><tspan x="368.40" dy="0.00">Semantic Connector</tspan></text><rect x="129.00" y="396.00" width="153.60" height="54.00" rx="0" ry="0" fill="#fce4ec" stroke="#c62828" stroke-width="2" stroke-linejoin="round" stroke-linecap="round"/><text x="205.80" y="427.00" text-anchor="middle" font-family="arial, helvetica, sans-serif" font-size="16" fill="#01579b"><tspan x="205.80" dy="0.00">DDPM Denoiser</tspan></text><rect x="706.20" y="148.00" width="110.40" height="54.00" rx="0" ry="0" fill="#f3e5f5" stroke="#7b1fa2" stroke-width="2" stroke-linejoin="round" stroke-linecap="round"/><text x="761.40" y="179.00" text-anchor="middle" font-family="arial, helvetica, sans-serif" font-size="16" fill="#01579b"><tspan x="761.40" dy="0.00">Entropy</tspan></text><rect x="583.20" y="396.00" width="189.60" height="54.00" rx="0" ry="0" fill="#fff3e0" stroke="#ef6c00" stroke-width="2" stroke-linejoin="round" stroke-linecap="round"/><text x="678.00" y="427.00" text-anchor="middle" font-family="arial, helvetica, sans-serif" font-size="16" fill="#01579b"><tspan x="678.00" dy="0.00">Transformer Layers</tspan></text><rect x="427.20" y="520.00" width="153.60" height="54.00" rx="0" ry="0" fill="#fff3e0" stroke="#ef6c00" stroke-width="2" stroke-linejoin="round" stroke-linecap="round"/><text x="504.00" y="551.00" text-anchor="middle" font-family="arial, helvetica, sans-serif" font-size="16" fill="#01579b"><tspan x="504.00" dy="0.00">LoRA Adapters</tspan></text><rect x="640.80" y="520.00" width="96.00" height="54.00" rx="0" ry="0" fill="#e1f5fe" stroke="#0288d1" stroke-width="1" stroke-linejoin="round" stroke-linecap="round"/><text x="688.80" y="551.00" text-anchor="middle" font-family="arial, helvetica, sans-serif" font-size="16" fill="#01579b"><tspan x="688.80" dy="0.00">Loss1</tspan></text><rect x="688.20" y="24.00" width="146.40" height="54.00" rx="0" ry="0" fill="#e1f5fe" stroke="#0288d1" stroke-width="1" stroke-linejoin="round" stroke-linecap="round"/><text x="761.40" y="55.00" text-anchor="middle" font-family="arial, helvetica, sans-serif" font-size="16" fill="#01579b"><tspan x="761.40" dy="0.00">Loss1[&quot;Cross</tspan></text><rect x="147.00" y="520.00" width="117.60" height="54.00" rx="0" ry="0" fill="#f3e5f5" stroke="#7b1fa2" stroke-width="2" stroke-linejoin="round" stroke-linecap="round"/><text x="205.80" y="551.00" text-anchor="middle" font-family="arial, helvetica, sans-serif" font-size="16" fill="#01579b"><tspan x="205.80" dy="0.00">MSE Loss</tspan></text><rect x="796.80" y="520.00" width="175.20" height="54.00" rx="0" ry="0" fill="#e8eaf6" stroke="#455a64" stroke-width="2" stroke-linejoin="round" stroke-linecap="round"/><text x="884.40" y="551.00" text-anchor="middle" font-family="arial, helvetica, sans-serif" font-size="16" fill="#01579b"><tspan x="884.40" dy="0.00">Predicted Tokens</tspan></text><rect x="273.60" y="148.00" width="189.60" height="54.00" rx="0" ry="0" fill="#e8f5e9" stroke="#2e7d32" stroke-width="2" stroke-linejoin="round" stroke-linecap="round"/><text x="368.40" y="179.00" text-anchor="middle" font-family="arial, helvetica, sans-serif" font-size="16" fill="#01579b"><tspan x="368.40" dy="0.00">Semantic Tokenizer</tspan></text><rect x="583.20" y="272.00" width="168.00" height="54.00" rx="0" ry="0" fill="#e3f2fd" stroke="#0288d1" stroke-width="2" stroke-linejoin="round" stroke-linecap="round"/><text x="667.20" y="303.00" text-anchor="middle" font-family="arial, helvetica, sans-serif" font-size="16" fill="#01579b"><tspan x="667.20" dy="0.00">Text Transcript</tspan></text><rect x="811.20" y="272.00" width="146.40" height="54.00" rx="0" ry="0" fill="#e3f2fd" stroke="#0288d1" stroke-width="2" stroke-linejoin="round" stroke-linecap="round"/><text x="884.40" y="303.00" text-anchor="middle" font-family="arial, helvetica, sans-serif" font-size="16" fill="#01579b"><tspan x="884.40" dy="0.00">Voice Prompt</tspan></text></svg>