<svg xmlns="http://www.w3.org/2000/svg" width="3566.755" height="878" viewBox="0 0 3566.755 878"><rect width="100%" height="100%" fill="#FFFFFF"/><defs><marker id="arrow-0" viewBox="0 0 10 10" refX="5" refY="5" markerUnits="userSpaceOnUse" markerWidth="8" markerHeight="8" orient="auto"><path d="M 0 0 L 10 5 L 0 10 z" fill="#333333"/></marker><marker id="arrow-start-0" viewBox="0 0 10 10" refX="4.5" refY="5" markerUnits="userSpaceOnUse" markerWidth="8" markerHeight="8" orient="auto"><path d="M 0 5 L 10 10 L 10 0 z" fill="#333333"/></marker></defs><rect x="941.97" y="204.00" width="2299.62" height="518.00" rx="10" ry="10" fill="#FFFFDE" stroke="#AAAA33" stroke-width="1" /><text x="2091.79" y="232.00" text-anchor="middle" font-family="'trebuchet ms', verdana, arial, sans-serif" font-size="16" fill="#333333"><tspan x="2091.79" dy="0.00">VibeVoice Model</tspan></text><rect x="2151.40" y="36.00" width="479.78" height="262.00" rx="10" ry="10" fill="#f3e5f5" stroke="#AAAA33" stroke-width="1" /><text x="2391.29" y="64.00" text-anchor="middle" font-family="'trebuchet ms', verdana, arial, sans-serif" font-size="16" fill="#333333"><tspan x="2391.29" dy="0.00">Training Process</tspan></text><rect x="953.97" y="448.00" width="465.60" height="262.00" rx="10" ry="10" fill="#fce4ec" stroke="#AAAA33" stroke-width="1" /><text x="1186.77" y="476.00" text-anchor="middle" font-family="'trebuchet ms', verdana, arial, sans-serif" font-size="16" fill="#333333"><tspan x="1186.77" dy="0.00">Diffusion Head</tspan><tspan x="1186.77" dy="24.00">(Trainable)</tspan></text><rect x="2713.30" y="216.00" width="516.30" height="182.00" rx="10" ry="10" fill="#fff3e0" stroke="#AAAA33" stroke-width="1" /><text x="2971.45" y="244.00" text-anchor="middle" font-family="'trebuchet ms', verdana, arial, sans-serif" font-size="16" fill="#333333"><tspan x="2971.45" dy="0.00">Qwen2 LLM Backbone</tspan><tspan x="2971.45" dy="24.00">(Frozen + LoRA)</tspan></text><rect x="466.60" y="24.00" width="216.00" height="390.00" rx="10" ry="10" fill="#e3f2fd" stroke="#AAAA33" stroke-width="1" /><text x="574.60" y="52.00" text-anchor="middle" font-family="'trebuchet ms', verdana, arial, sans-serif" font-size="16" fill="#333333"><tspan x="574.60" dy="0.00">Input</tspan></text><rect x="24.00" y="216.00" width="237.60" height="238.00" rx="10" ry="10" fill="#e8f5e9" stroke="#AAAA33" stroke-width="1" /><text x="142.80" y="244.00" text-anchor="middle" font-family="'trebuchet ms', verdana, arial, sans-serif" font-size="16" fill="#333333"><tspan x="142.80" dy="0.00">Audio Preprocessing</tspan></text><rect x="3283.55" y="488.00" width="223.20" height="238.00" rx="10" ry="10" fill="#e8eaf6" stroke="#AAAA33" stroke-width="1" /><text x="3395.15" y="516.00" text-anchor="middle" font-family="'trebuchet ms', verdana, arial, sans-serif" font-size="16" fill="#333333"><tspan x="3395.15" dy="0.00">Output</tspan></text><path d="M 2270.200,146.000C2270.200,137.000,2230.117,123.500,2270.200,119.000C2310.283,114.500,2470.617,123.500,2510.700,119.000C2550.783,114.500,2510.700,101.000,2510.700,92.000" fill="none" stroke="#333333" stroke-width="2"    stroke-linecap="round" stroke-linejoin="round" /><path d="M 555.400,158.000C555.400,167.000,624.167,180.500,555.400,185.000C486.633,189.500,211.567,170.500,142.800,185.000C74.033,199.500,142.800,243.000,142.800,272.000" fill="none" stroke="#333333" stroke-width="2" marker-end="url(#arrow-0)"   stroke-linecap="round" stroke-linejoin="round" /><path d="M 593.800,158.000C593.800,194.333,668.967,248.833,593.800,267.000C518.633,285.167,217.967,248.833,142.800,267.000C67.633,285.167,142.800,339.667,142.800,376.000" fill="none" stroke="#333333" stroke-width="2" marker-end="url(#arrow-0)"   stroke-linecap="round" stroke-linejoin="round" /><path d="M 574.600,262.000C574.600,254.333,175.125,242.833,574.600,239.000C974.075,235.167,2571.975,242.833,2971.450,239.000C3370.925,235.167,2971.450,223.667,2971.450,216.000" fill="none" stroke="#333333" stroke-width="2" marker-end="url(#arrow-0)"   stroke-linecap="round" stroke-linejoin="round" /><path d="M 574.600,312.000C574.600,296.333,175.125,272.833,574.600,265.000C974.075,257.167,2571.975,272.833,2971.450,265.000C3370.925,257.167,2971.450,233.667,2971.450,218.000" fill="none" stroke="#333333" stroke-width="2" marker-end="url(#arrow-0)"   stroke-linecap="round" stroke-linejoin="round" /><path d="M 142.800,326.000C142.800,359.667,-12.196,410.167,142.800,427.000C297.796,443.833,917.779,410.167,1072.775,427.000C1227.771,443.833,1072.775,494.333,1072.775,528.000" fill="none" stroke="#333333" stroke-width="2" marker-end="url(#arrow-0)"   stroke-linecap="round" stroke-linejoin="round" /><path d="M 142.800,430.000C142.800,483.667,-12.196,564.167,142.800,591.000C297.796,617.833,917.779,584.167,1072.775,591.000C1227.771,597.833,1072.775,618.333,1072.775,632.000" fill="none" stroke="#333333" stroke-width="2" marker-end="url(#arrow-0)"   stroke-linecap="round" stroke-linejoin="round" /><path d="M 2971.450,398.000C2971.450,406.333,3268.896,418.833,2971.450,423.000C2674.004,427.167,1484.221,418.833,1186.775,423.000C889.329,427.167,1186.775,439.667,1186.775,448.000" fill="none" stroke="#333333" stroke-width="2" marker-end="url(#arrow-0)"   stroke-linecap="round" stroke-linejoin="round" /><path d="M 2832.100,362.000C2832.100,351.000,2786.850,334.500,2832.100,329.000C2877.350,323.500,3058.350,334.500,3103.600,329.000C3148.850,323.500,3103.600,307.000,3103.600,296.000" fill="none" stroke="#333333" stroke-width="2" marker-end="url(#arrow-0)"   stroke-linecap="round" stroke-linejoin="round" /><path d="M 1072.775,582.000C1072.775,581.667,1035.375,581.167,1072.775,581.000C1110.175,580.833,1259.775,581.167,1297.175,581.000C1334.575,580.833,1297.175,580.333,1297.175,580.000" fill="none" stroke="#333333" stroke-width="2" marker-end="url(#arrow-0)"   stroke-linecap="round" stroke-linejoin="round" /><path d="M 1072.775,686.000C1072.775,668.333,1028.175,641.833,1072.775,633.000C1117.375,624.167,1295.775,641.833,1340.375,633.000C1384.975,624.167,1340.375,597.667,1340.375,580.000" fill="none" stroke="#333333" stroke-width="2" marker-end="url(#arrow-0)"   stroke-linecap="round" stroke-linejoin="round" /><path d="M 2971.450,398.000C2971.450,459.000,3333.146,550.500,2971.450,581.000C2609.754,611.500,1162.971,550.500,801.275,581.000C439.579,611.500,801.275,703.000,801.275,764.000" fill="none" stroke="#333333" stroke-width="2" marker-end="url(#arrow-0)"   stroke-linecap="round" stroke-linejoin="round" /><path d="M 1186.775,708.000C1186.775,635.667,1010.804,527.167,1186.775,491.000C1362.746,454.833,2066.629,527.167,2242.600,491.000C2418.571,454.833,2242.600,346.333,2242.600,274.000" fill="none" stroke="#333333" stroke-width="2" marker-end="url(#arrow-0)"   stroke-linecap="round" stroke-linejoin="round" /><path d="M 777.275,764.000C777.275,680.333,491.971,554.833,777.275,513.000C1062.579,471.167,2203.796,554.833,2489.100,513.000C2774.404,471.167,2489.100,345.667,2489.100,262.000" fill="none" stroke="#333333" stroke-width="2" marker-end="url(#arrow-0)"   stroke-linecap="round" stroke-linejoin="round" /><path d="M 2297.800,274.000C2297.800,263.000,2262.317,246.500,2297.800,241.000C2333.283,235.500,2475.217,246.500,2510.700,241.000C2546.183,235.500,2510.700,219.000,2510.700,208.000" fill="none" stroke="#333333" stroke-width="2" marker-end="url(#arrow-0)"   stroke-linecap="round" stroke-linejoin="round" /><path d="M 2532.300,262.000C2532.300,326.333,2388.491,422.833,2532.300,455.000C2676.109,487.167,3251.346,422.833,3395.155,455.000C3538.964,487.167,3395.155,583.667,3395.155,648.000" fill="none" stroke="#333333" stroke-width="2" marker-end="url(#arrow-0)"   stroke-linecap="round" stroke-linejoin="round" /><path d="M 2971.450,398.000C2971.450,422.333,2900.832,458.833,2971.450,471.000C3042.067,483.167,3324.538,458.833,3395.155,471.000C3465.772,483.167,3395.155,519.667,3395.155,544.000" fill="none" stroke="#333333" stroke-width="2" marker-end="url(#arrow-0)"   stroke-linecap="round" stroke-linejoin="round" /><rect x="48.00" y="272.00" width="189.60" height="54.00" rx="0" ry="0" fill="#ECECFF" stroke="#9370DB" stroke-width="1" stroke-linejoin="round" stroke-linecap="round"/><text x="142.80" y="303.00" text-anchor="middle" font-family="'trebuchet ms', verdana, arial, sans-serif" font-size="16" fill="#333333"><tspan x="142.80" dy="0.00">Acoustic Tokenizer</tspan></text><rect x="505.00" y="80.00" width="139.20" height="78.00" rx="0" ry="0" fill="#ECECFF" stroke="#9370DB" stroke-width="1" stroke-linejoin="round" stroke-linecap="round"/><text x="574.60" y="111.00" text-anchor="middle" font-family="'trebuchet ms', verdana, arial, sans-serif" font-size="16" fill="#333333"><tspan x="574.60" dy="0.00">Audio Input</tspan><tspan x="574.60" dy="24.00">(24kHz)</tspan></text><rect x="3307.55" y="648.00" width="175.20" height="54.00" rx="0" ry="0" fill="#ECECFF" stroke="#9370DB" stroke-width="1" stroke-linejoin="round" stroke-linecap="round"/><text x="3395.16" y="679.00" text-anchor="middle" font-family="'trebuchet ms', verdana, arial, sans-serif" font-size="16" fill="#333333"><tspan x="3395.16" dy="0.00">Model Checkpoint</tspan></text><rect x="2433.90" y="208.00" width="153.60" height="54.00" rx="0" ry="0" fill="#ECECFF" stroke="#9370DB" stroke-width="1" stroke-linejoin="round" stroke-linecap="round"/><text x="2510.70" y="239.00" text-anchor="middle" font-family="'trebuchet ms', verdana, arial, sans-serif" font-size="16" fill="#333333"><tspan x="2510.70" dy="0.00">Combined Loss</tspan></text><rect x="977.97" y="528.00" width="189.60" height="54.00" rx="0" ry="0" fill="#ECECFF" stroke="#9370DB" stroke-width="1" stroke-linejoin="round" stroke-linecap="round"/><text x="1072.78" y="559.00" text-anchor="middle" font-family="'trebuchet ms', verdana, arial, sans-serif" font-size="16" fill="#333333"><tspan x="1072.78" dy="0.00">Acoustic Connector</tspan></text><rect x="977.97" y="632.00" width="189.60" height="54.00" rx="0" ry="0" fill="#ECECFF" stroke="#9370DB" stroke-width="1" stroke-linejoin="round" stroke-linecap="round"/><text x="1072.78" y="663.00" text-anchor="middle" font-family="'trebuchet ms', verdana, arial, sans-serif" font-size="16" fill="#333333"><tspan x="1072.78" dy="0.00">Semantic Connector</tspan></text><rect x="1241.97" y="580.00" width="153.60" height="54.00" rx="0" ry="0" fill="#ECECFF" stroke="#9370DB" stroke-width="1" stroke-linejoin="round" stroke-linecap="round"/><text x="1318.78" y="611.00" text-anchor="middle" font-family="'trebuchet ms', verdana, arial, sans-serif" font-size="16" fill="#333333"><tspan x="1318.78" dy="0.00">DDPM Denoiser</tspan></text><polygon points="2414.22,92.00 2564.73,92.00 2607.18,119.00 2564.73,146.00 2414.22,146.00" fill="#ECECFF" stroke="#9370DB" stroke-width="1" stroke-linejoin="round" stroke-linecap="round"/><text x="2510.70" y="123.00" text-anchor="middle" font-family="'trebuchet ms', verdana, arial, sans-serif" font-size="16" fill="#333333"><tspan x="2510.70" dy="0.00">(Text Tokens)&quot;</tspan></text><rect x="2737.30" y="308.00" width="189.60" height="54.00" rx="0" ry="0" fill="#ECECFF" stroke="#9370DB" stroke-width="1" stroke-linejoin="round" stroke-linecap="round"/><text x="2832.10" y="339.00" text-anchor="middle" font-family="'trebuchet ms', verdana, arial, sans-serif" font-size="16" fill="#333333"><tspan x="2832.10" dy="0.00">Transformer Layers</tspan></text><rect x="3001.60" y="296.00" width="204.00" height="78.00" rx="0" ry="0" fill="#ECECFF" stroke="#9370DB" stroke-width="1" stroke-linejoin="round" stroke-linecap="round"/><text x="3103.60" y="327.00" text-anchor="middle" font-family="'trebuchet ms', verdana, arial, sans-serif" font-size="16" fill="#333333"><tspan x="3103.60" dy="0.00">LoRA Adapters</tspan><tspan x="3103.60" dy="24.00">q_proj, v_proj, etc.</tspan></text><rect x="741.27" y="764.00" width="96.00" height="54.00" rx="0" ry="0" fill="#ECECFF" stroke="#9370DB" stroke-width="1" stroke-linejoin="round" stroke-linecap="round"/><text x="789.27" y="795.00" text-anchor="middle" font-family="'trebuchet ms', verdana, arial, sans-serif" font-size="16" fill="#333333"><tspan x="789.27" dy="0.00">Loss1</tspan></text><rect x="2197.00" y="92.00" width="146.40" height="54.00" rx="0" ry="0" fill="#ECECFF" stroke="#9370DB" stroke-width="1" stroke-linejoin="round" stroke-linecap="round"/><text x="2270.20" y="123.00" text-anchor="middle" font-family="'trebuchet ms', verdana, arial, sans-serif" font-size="16" fill="#333333"><tspan x="2270.20" dy="0.00">Loss1[&quot;Cross</tspan></text><rect x="2175.40" y="196.00" width="189.60" height="78.00" rx="0" ry="0" fill="#ECECFF" stroke="#9370DB" stroke-width="1" stroke-linejoin="round" stroke-linecap="round"/><text x="2270.20" y="227.00" text-anchor="middle" font-family="'trebuchet ms', verdana, arial, sans-serif" font-size="16" fill="#333333"><tspan x="2270.20" dy="0.00">MSE Loss</tspan><tspan x="2270.20" dy="24.00">(Acoustic Latents)</tspan></text><rect x="3307.55" y="544.00" width="175.20" height="54.00" rx="0" ry="0" fill="#ECECFF" stroke="#9370DB" stroke-width="1" stroke-linejoin="round" stroke-linecap="round"/><text x="3395.16" y="575.00" text-anchor="middle" font-family="'trebuchet ms', verdana, arial, sans-serif" font-size="16" fill="#333333"><tspan x="3395.16" dy="0.00">Predicted Tokens</tspan></text><rect x="48.00" y="376.00" width="189.60" height="54.00" rx="0" ry="0" fill="#ECECFF" stroke="#9370DB" stroke-width="1" stroke-linejoin="round" stroke-linecap="round"/><text x="142.80" y="407.00" text-anchor="middle" font-family="'trebuchet ms', verdana, arial, sans-serif" font-size="16" fill="#333333"><tspan x="142.80" dy="0.00">Semantic Tokenizer</tspan></text><rect x="490.60" y="208.00" width="168.00" height="54.00" rx="0" ry="0" fill="#ECECFF" stroke="#9370DB" stroke-width="1" stroke-linejoin="round" stroke-linecap="round"/><text x="574.60" y="239.00" text-anchor="middle" font-family="'trebuchet ms', verdana, arial, sans-serif" font-size="16" fill="#333333"><tspan x="574.60" dy="0.00">Text Transcript</tspan></text><rect x="501.40" y="312.00" width="146.40" height="78.00" rx="0" ry="0" fill="#ECECFF" stroke="#9370DB" stroke-width="1" stroke-linejoin="round" stroke-linecap="round"/><text x="574.60" y="343.00" text-anchor="middle" font-family="'trebuchet ms', verdana, arial, sans-serif" font-size="16" fill="#333333"><tspan x="574.60" dy="0.00">Voice Prompt</tspan><tspan x="574.60" dy="24.00">(optional)</tspan></text></svg>