<svg xmlns="http://www.w3.org/2000/svg" width="896.3999" height="2677.5" viewBox="0 0 896.3999 2677.5"><rect width="100%" height="100%" fill="#FFFFFF"/><defs><marker id="arrow-0" viewBox="0 0 10 10" refX="5" refY="5" markerUnits="userSpaceOnUse" markerWidth="8" markerHeight="8" orient="auto"><path d="M 0 0 L 10 5 L 0 10 z" fill="#333333"/></marker><marker id="arrow-start-0" viewBox="0 0 10 10" refX="4.5" refY="5" markerUnits="userSpaceOnUse" markerWidth="8" markerHeight="8" orient="auto"><path d="M 0 5 L 10 10 L 10 0 z" fill="#333333"/></marker></defs><rect x="24.00" y="256.00" width="812.40" height="457.10" rx="10" ry="10" fill="#fff3e0" stroke="#AAAA33" stroke-width="1" /><text x="430.20" y="284.00" text-anchor="middle" font-family="'trebuchet ms', verdana, arial, sans-serif" font-size="16" fill="#333333"><tspan x="430.20" dy="0.00">Processing Steps</tspan></text><rect x="242.00" y="268.00" width="422.00" height="317.10" rx="10" ry="10" fill="#e8f5e9" stroke="#AAAA33" stroke-width="1" /><text x="453.00" y="296.00" text-anchor="middle" font-family="'trebuchet ms', verdana, arial, sans-serif" font-size="16" fill="#333333"><tspan x="453.00" dy="0.00">Transcription Stage</tspan></text><rect x="43.20" y="24.00" width="558.40" height="158.00" rx="10" ry="10" fill="#e3f2fd" stroke="#AAAA33" stroke-width="1" /><text x="322.40" y="52.00" text-anchor="middle" font-family="'trebuchet ms', verdana, arial, sans-serif" font-size="16" fill="#333333"><tspan x="322.40" dy="0.00">Data Sources</tspan></text><rect x="39.60" y="1388.30" width="201.60" height="286.00" rx="10" ry="10" fill="#fce4ec" stroke="#AAAA33" stroke-width="1" /><text x="140.40" y="1416.30" text-anchor="middle" font-family="'trebuchet ms', verdana, arial, sans-serif" font-size="16" fill="#333333"><tspan x="140.40" dy="0.00">Validation</tspan></text><rect x="272.80" y="2483.50" width="362.00" height="134.00" rx="10" ry="10" fill="#e8eaf6" stroke="#AAAA33" stroke-width="1" /><text x="453.80" y="2511.50" text-anchor="middle" font-family="'trebuchet ms', verdana, arial, sans-serif" font-size="16" fill="#333333"><tspan x="453.80" dy="0.00">JSONL Output</tspan></text><path d="M 616.000,378.600C593.600,378.600,560.000,354.683,548.800,378.600C537.600,402.517,560.000,498.183,548.800,522.100C537.600,546.017,504.000,522.100,481.600,522.100" fill="none" stroke="#333333" stroke-width="2"    stroke-linecap="round" stroke-linejoin="round" /><g transform="translate(616.00 378.60) rotate(180.00)"><circle cx="0" cy="0" r="4" fill="none" stroke="#333333" stroke-width="2"/></g><path d="M 192.000,119.000C168.000,119.000,132.000,75.733,120.000,119.000C108.000,162.267,132.000,335.333,120.000,378.600C108.000,421.867,72.000,378.600,48.000,378.600" fill="none" stroke="#333333" stroke-width="2" marker-end="url(#arrow-0)"   stroke-linecap="round" stroke-linejoin="round" /><path d="M 242.000,119.000C237.667,119.000,231.167,77.233,229.000,119.000C226.833,160.767,231.167,327.833,229.000,369.600C226.833,411.367,220.333,369.600,216.000,369.600" fill="none" stroke="#333333" stroke-width="2" marker-end="url(#arrow-0)"   stroke-linecap="round" stroke-linejoin="round" /><path d="M 438.400,119.000C447.267,119.000,460.567,53.317,465.000,119.000C469.433,184.683,470.567,447.417,465.000,513.100C459.433,578.783,442.733,513.100,431.600,513.100" fill="none" stroke="#333333" stroke-width="2" marker-end="url(#arrow-0)"  stroke-dasharray="2" stroke-linecap="round" stroke-linejoin="round" /><path d="M 216.000,387.600C188.000,387.600,146.000,365.183,132.000,387.600C118.000,410.017,146.000,499.683,132.000,522.100C118.000,544.517,76.000,522.100,48.000,522.100" fill="none" stroke="#333333" stroke-width="2" marker-end="url(#arrow-0)"   stroke-linecap="round" stroke-linejoin="round" /><path d="M 426.769,364.400C383.174,364.400,317.782,338.117,295.985,364.400C274.187,390.683,297.782,495.817,295.985,522.100C294.187,548.383,288.795,522.100,285.200,522.100" fill="none" stroke="#333333" stroke-width="2" marker-end="url(#arrow-0)"   stroke-linecap="round" stroke-linejoin="round" /><rect x="212.78" y="429.25" width="29.60" height="28.00" rx="0" ry="0" fill="#E8E8E8" fill-opacity="0.5" stroke="none"/><text x="227.58" y="447.25" text-anchor="middle" font-family="'trebuchet ms', verdana, arial, sans-serif" font-size="16" fill="#333333"><tspan x="227.58" dy="0.00">Yes</tspan></text><path d="M 426.769,392.800C410.508,392.800,386.115,370.167,377.985,392.800C369.854,415.433,386.115,505.967,377.985,528.600C369.854,551.233,345.462,528.600,329.200,528.600" fill="none" stroke="#333333" stroke-width="2" marker-end="url(#arrow-0)"   stroke-linecap="round" stroke-linejoin="round" /><rect x="366.78" y="446.70" width="22.40" height="28.00" rx="0" ry="0" fill="#E8E8E8" fill-opacity="0.5" stroke="none"/><text x="377.98" y="464.70" text-anchor="middle" font-family="'trebuchet ms', verdana, arial, sans-serif" font-size="16" fill="#333333"><tspan x="377.98" dy="0.00">No</tspan></text><path d="M 431.600,531.100C426.000,531.100,417.600,512.767,414.800,531.100C412.000,549.433,437.600,622.767,414.800,641.100C392.000,659.433,323.600,641.100,278.000,641.100" fill="none" stroke="#333333" stroke-width="2" marker-end="url(#arrow-0)"   stroke-linecap="round" stroke-linejoin="round" /><path d="M 403.600,528.600C382.667,528.600,351.267,506.850,340.800,528.600C330.333,550.350,351.267,637.350,340.800,659.100C330.333,680.850,298.933,659.100,278.000,659.100" fill="none" stroke="#333333" stroke-width="2" marker-end="url(#arrow-0)"   stroke-linecap="round" stroke-linejoin="round" /><path d="M 217.200,1469.800C193.400,1469.800,157.700,1446.217,145.800,1469.800C133.900,1493.383,157.700,1587.717,145.800,1611.300C133.900,1634.883,98.200,1611.300,74.400,1611.300" fill="none" stroke="#333333" stroke-width="2" marker-end="url(#arrow-0)"   stroke-linecap="round" stroke-linejoin="round" /><path d="M 217.200,1483.300C230.467,1483.300,250.367,1302.767,257.000,1483.300C263.633,1663.833,250.367,2385.967,257.000,2566.500C263.633,2747.033,283.533,2566.500,296.800,2566.500" fill="none" stroke="#333333" stroke-width="2" marker-end="url(#arrow-0)"   stroke-linecap="round" stroke-linejoin="round" /><path d="M 217.200,1496.800C302.000,1496.800,429.200,1318.517,471.600,1496.800C514.000,1675.083,469.200,2388.217,471.600,2566.500C474.000,2744.783,481.200,2566.500,486.000,2566.500" fill="none" stroke="#333333" stroke-width="2" marker-end="url(#arrow-0)"   stroke-linecap="round" stroke-linejoin="round" /><rect x="296.80" y="2539.50" width="139.20" height="54.00" rx="0" ry="0" fill="#ECECFF" stroke="#9370DB" stroke-width="1" stroke-linejoin="round" stroke-linecap="round"/><text x="366.40" y="2570.50" text-anchor="middle" font-family="'trebuchet ms', verdana, arial, sans-serif" font-size="16" fill="#333333"><tspan x="366.40" dy="0.00">train.jsonl</tspan></text><rect x="486.00" y="2539.50" width="124.80" height="54.00" rx="0" ry="0" fill="#ECECFF" stroke="#9370DB" stroke-width="1" stroke-linejoin="round" stroke-linecap="round"/><text x="548.40" y="2570.50" text-anchor="middle" font-family="'trebuchet ms', verdana, arial, sans-serif" font-size="16" fill="#333333"><tspan x="548.40" dy="0.00">val.jsonl</tspan></text><rect x="48.00" y="339.60" width="168.00" height="78.00" rx="0" ry="0" fill="#ECECFF" stroke="#9370DB" stroke-width="1" stroke-linejoin="round" stroke-linecap="round"/><text x="132.00" y="370.60" text-anchor="middle" font-family="'trebuchet ms', verdana, arial, sans-serif" font-size="16" fill="#333333"><tspan x="132.00" dy="0.00">Scan &amp; Validate</tspan><tspan x="132.00" dy="24.00">Audio Files</tspan></text><rect x="48.00" y="483.10" width="168.00" height="78.00" rx="0" ry="0" fill="#ECECFF" stroke="#9370DB" stroke-width="1" stroke-linejoin="round" stroke-linecap="round"/><text x="132.00" y="514.10" text-anchor="middle" font-family="'trebuchet ms', verdana, arial, sans-serif" font-size="16" fill="#333333"><tspan x="132.00" dy="0.00">Check Audio</tspan><tspan x="132.00" dy="24.00">Quality (24kHz)</tspan></text><rect x="278.00" y="611.10" width="160.80" height="78.00" rx="0" ry="0" fill="#ECECFF" stroke="#9370DB" stroke-width="1" stroke-linejoin="round" stroke-linecap="round"/><text x="358.40" y="642.10" text-anchor="middle" font-family="'trebuchet ms', verdana, arial, sans-serif" font-size="16" fill="#333333"><tspan x="358.40" dy="0.00">Format with</tspan><tspan x="358.40" dy="24.00">Speaker Labels</tspan></text><rect x="666.00" y="339.60" width="146.40" height="78.00" rx="0" ry="0" fill="#ECECFF" stroke="#9370DB" stroke-width="1" stroke-linejoin="round" stroke-linecap="round"/><text x="739.20" y="370.60" text-anchor="middle" font-family="'trebuchet ms', verdana, arial, sans-serif" font-size="16" fill="#333333"><tspan x="739.20" dy="0.00">Assign Voice</tspan><tspan x="739.20" dy="24.00">Prompts</tspan></text><rect x="67.20" y="80.00" width="124.80" height="78.00" rx="0" ry="0" fill="#ECECFF" stroke="#9370DB" stroke-width="1" stroke-linejoin="round" stroke-linecap="round"/><text x="129.60" y="111.00" text-anchor="middle" font-family="'trebuchet ms', verdana, arial, sans-serif" font-size="16" fill="#333333"><tspan x="129.60" dy="0.00">Raw Audio</tspan><tspan x="129.60" dy="24.00">Directory</tspan></text><rect x="242.00" y="80.00" width="146.40" height="78.00" rx="0" ry="0" fill="#ECECFF" stroke="#9370DB" stroke-width="1" stroke-linejoin="round" stroke-linecap="round"/><text x="315.20" y="111.00" text-anchor="middle" font-family="'trebuchet ms', verdana, arial, sans-serif" font-size="16" fill="#333333"><tspan x="315.20" dy="0.00">CSV Metadata</tspan><tspan x="315.20" dy="24.00">File</tspan></text><rect x="438.40" y="80.00" width="139.20" height="78.00" rx="0" ry="0" fill="#ECECFF" stroke="#9370DB" stroke-width="1" stroke-linejoin="round" stroke-linecap="round"/><text x="508.00" y="111.00" text-anchor="middle" font-family="'trebuchet ms', verdana, arial, sans-serif" font-size="16" fill="#333333"><tspan x="508.00" dy="0.00">Existing</tspan><tspan x="508.00" dy="24.00">Transcripts</tspan></text><polygon points="358.40,324.00 450.80,378.60 358.40,433.20 266.00,378.60" fill="#ECECFF" stroke="#9370DB" stroke-width="1" stroke-linejoin="round" stroke-linecap="round"/><text x="358.40" y="370.60" text-anchor="middle" font-family="'trebuchet ms', verdana, arial, sans-serif" font-size="16" fill="#333333"><tspan x="358.40" dy="0.00">Transcript</tspan><tspan x="358.40" dy="24.00">Exists?</tspan></text><rect x="285.20" y="483.10" width="146.40" height="78.00" rx="0" ry="0" fill="#ECECFF" stroke="#9370DB" stroke-width="1" stroke-linejoin="round" stroke-linecap="round"/><text x="358.40" y="514.10" text-anchor="middle" font-family="'trebuchet ms', verdana, arial, sans-serif" font-size="16" fill="#333333"><tspan x="358.40" dy="0.00">Use Existing</tspan><tspan x="358.40" dy="24.00">Transcript</tspan></text><rect x="329.20" y="501.60" width="74.40" height="54.00" rx="0" ry="0" fill="#ECECFF" stroke="#9370DB" stroke-width="1" stroke-linejoin="round" stroke-linecap="round"/><text x="366.40" y="532.60" text-anchor="middle" font-family="'trebuchet ms', verdana, arial, sans-serif" font-size="16" fill="#333333"><tspan x="366.40" dy="0.00">T3</tspan></text><rect x="505.60" y="351.60" width="110.40" height="54.00" rx="0" ry="0" fill="#ECECFF" stroke="#9370DB" stroke-width="1" stroke-linejoin="round" stroke-linecap="round"/><text x="560.80" y="382.60" text-anchor="middle" font-family="'trebuchet ms', verdana, arial, sans-serif" font-size="16" fill="#333333"><tspan x="560.80" dy="0.00">T3[&quot;Aut</tspan></text><polygon points="481.60,495.10 605.15,495.10 640.00,522.10 605.15,549.10 481.60,549.10" fill="#ECECFF" stroke="#9370DB" stroke-width="1" stroke-linejoin="round" stroke-linecap="round"/><text x="560.80" y="526.10" text-anchor="middle" font-family="'trebuchet ms', verdana, arial, sans-serif" font-size="16" fill="#333333"><tspan x="560.80" dy="0.00">(Whisper)&quot;</tspan></text><rect x="63.60" y="1444.30" width="153.60" height="78.00" rx="0" ry="0" fill="#ECECFF" stroke="#9370DB" stroke-width="1" stroke-linejoin="round" stroke-linecap="round"/><text x="140.40" y="1475.30" text-anchor="middle" font-family="'trebuchet ms', verdana, arial, sans-serif" font-size="16" fill="#333333"><tspan x="140.40" dy="0.00">Split Dataset</tspan><tspan x="140.40" dy="24.00">Train/Val</tspan></text><rect x="74.40" y="1572.30" width="132.00" height="78.00" rx="0" ry="0" fill="#ECECFF" stroke="#9370DB" stroke-width="1" stroke-linejoin="round" stroke-linecap="round"/><text x="140.40" y="1603.30" text-anchor="middle" font-family="'trebuchet ms', verdana, arial, sans-serif" font-size="16" fill="#333333"><tspan x="140.40" dy="0.00">Generate</tspan><tspan x="140.40" dy="24.00">Statistics</tspan></text></svg>