<svg xmlns="http://www.w3.org/2000/svg" width="1211.52" height="407.3" viewBox="0 0 1211.52 407.3"><rect width="100%" height="100%" fill="#FFFFFF"/><defs><marker id="arrow-0" viewBox="0 0 10 10" refX="5" refY="5" markerUnits="userSpaceOnUse" markerWidth="8" markerHeight="8" orient="auto"><path d="M 0 0 L 10 5 L 0 10 z" fill="#0288d1"/></marker><marker id="arrow-start-0" viewBox="0 0 10 10" refX="4.5" refY="5" markerUnits="userSpaceOnUse" markerWidth="8" markerHeight="8" orient="auto"><path d="M 0 5 L 10 10 L 10 0 z" fill="#0288d1"/></marker></defs><path d="M 86.400,88.800C86.400,102.217,74.600,122.342,86.400,129.050C98.200,135.758,145.400,122.342,157.200,129.050C169.000,135.758,157.200,155.883,157.200,169.300" fill="none" stroke="#0288d1" stroke-width="2" marker-end="url(#arrow-0)"   stroke-linecap="round" stroke-linejoin="round" /><path d="M 249.600,88.800C249.600,102.217,261.400,122.342,249.600,129.050C237.800,135.758,190.600,122.342,178.800,129.050C167.000,135.758,178.800,155.883,178.800,169.300" fill="none" stroke="#0288d1" stroke-width="2" marker-end="url(#arrow-0)"   stroke-linecap="round" stroke-linejoin="round" /><path d="M 420.000,88.800C420.000,102.217,419.860,122.342,420.000,129.050C420.140,135.758,420.700,122.342,420.840,129.050C420.980,135.758,420.840,155.883,420.840,169.300" fill="none" stroke="#0288d1" stroke-width="2" marker-end="url(#arrow-0)"  stroke-dasharray="2" stroke-linecap="round" stroke-linejoin="round" /><path d="M 168.000,223.300C168.000,234.967,168.000,252.467,168.000,258.300C168.000,264.133,168.000,252.467,168.000,258.300C168.000,264.133,168.000,281.633,168.000,293.300" fill="none" stroke="#0288d1" stroke-width="2" marker-end="url(#arrow-0)"   stroke-linecap="round" stroke-linejoin="round" /><path d="M 605.120,88.957C605.120,102.347,630.633,122.433,605.120,129.128C579.607,135.824,477.553,122.433,452.040,129.128C426.527,135.824,452.040,155.909,452.040,169.300" fill="none" stroke="#0288d1" stroke-width="2" marker-end="url(#arrow-0)"   stroke-linecap="round" stroke-linejoin="round" /><rect x="513.78" y="115.13" width="29.60" height="28.00" rx="0" ry="0" fill="#FFFFFF" fill-opacity="0.5" stroke="none"/><text x="528.58" y="133.13" text-anchor="middle" font-family="arial, helvetica, sans-serif" font-size="16" fill="#01579b"><tspan x="528.58" dy="0.00">Yes</tspan></text><path d="M 648.640,88.957C648.640,102.347,650.600,122.433,648.640,129.128C646.680,135.824,638.840,122.433,636.880,129.128C634.920,135.824,636.880,155.909,636.880,169.300" fill="none" stroke="#0288d1" stroke-width="2" marker-end="url(#arrow-0)"   stroke-linecap="round" stroke-linejoin="round" /><rect x="631.56" y="115.13" width="22.40" height="28.00" rx="0" ry="0" fill="#FFFFFF" fill-opacity="0.5" stroke="none"/><text x="642.76" y="133.13" text-anchor="middle" font-family="arial, helvetica, sans-serif" font-size="16" fill="#01579b"><tspan x="642.76" dy="0.00">No</tspan></text><path d="M 436.440,223.300C436.440,234.967,424.140,252.467,436.440,258.300C448.740,264.133,497.940,252.467,510.240,258.300C522.540,264.133,510.240,281.633,510.240,293.300" fill="none" stroke="#0288d1" stroke-width="2" marker-end="url(#arrow-0)"   stroke-linecap="round" stroke-linejoin="round" /><path d="M 636.880,223.300C636.880,234.967,653.587,252.467,636.880,258.300C620.173,264.133,553.347,252.467,536.640,258.300C519.933,264.133,536.640,281.633,536.640,293.300" fill="none" stroke="#0288d1" stroke-width="2" marker-end="url(#arrow-0)"   stroke-linecap="round" stroke-linejoin="round" /><path d="M 981.120,88.800C981.120,102.217,995.120,122.342,981.120,129.050C967.120,135.758,911.120,122.342,897.120,129.050C883.120,135.758,897.120,155.883,897.120,169.300" fill="none" stroke="#0288d1" stroke-width="2" marker-end="url(#arrow-0)"   stroke-linecap="round" stroke-linejoin="round" /><path d="M 1005.120,88.800C1005.120,102.217,991.120,122.342,1005.120,129.050C1019.120,135.758,1075.120,122.342,1089.120,129.050C1103.120,135.758,1089.120,155.883,1089.120,169.300" fill="none" stroke="#0288d1" stroke-width="2" marker-end="url(#arrow-0)"   stroke-linecap="round" stroke-linejoin="round" /><rect x="827.52" y="169.30" width="139.20" height="54.00" rx="0" ry="0" fill="#e8eaf6" stroke="#455a64" stroke-width="2" stroke-linejoin="round" stroke-linecap="round"/><text x="897.12" y="200.30" text-anchor="middle" font-family="arial, helvetica, sans-serif" font-size="16" fill="#01579b"><tspan x="897.12" dy="0.00">train.jsonl</tspan></text><rect x="1026.72" y="169.30" width="124.80" height="54.00" rx="0" ry="0" fill="#e8eaf6" stroke="#455a64" stroke-width="2" stroke-linejoin="round" stroke-linecap="round"/><text x="1089.12" y="200.30" text-anchor="middle" font-family="arial, helvetica, sans-serif" font-size="16" fill="#01579b"><tspan x="1089.12" dy="0.00">val.jsonl</tspan></text><rect x="123.60" y="169.30" width="88.80" height="54.00" rx="0" ry="0" fill="#fff3e0" stroke="#ef6c00" stroke-width="2" stroke-linejoin="round" stroke-linecap="round"/><text x="168.00" y="200.30" text-anchor="middle" font-family="arial, helvetica, sans-serif" font-size="16" fill="#01579b"><tspan x="168.00" dy="0.00">Scan</tspan></text><rect x="109.20" y="293.30" width="117.60" height="54.00" rx="0" ry="0" fill="#fff3e0" stroke="#ef6c00" stroke-width="2" stroke-linejoin="round" stroke-linecap="round"/><text x="168.00" y="324.30" text-anchor="middle" font-family="arial, helvetica, sans-serif" font-size="16" fill="#01579b"><tspan x="168.00" dy="0.00">Validate</tspan></text><rect x="471.84" y="293.30" width="103.20" height="54.00" rx="0" ry="0" fill="#fff3e0" stroke="#ef6c00" stroke-width="2" stroke-linejoin="round" stroke-linecap="round"/><text x="523.44" y="324.30" text-anchor="middle" font-family="arial, helvetica, sans-serif" font-size="16" fill="#01579b"><tspan x="523.44" dy="0.00">Format</tspan></text><rect x="774.72" y="34.80" width="110.40" height="54.00" rx="0" ry="0" fill="#fff3e0" stroke="#ef6c00" stroke-width="2" stroke-linejoin="round" stroke-linecap="round"/><text x="829.92" y="65.80" text-anchor="middle" font-family="arial, helvetica, sans-serif" font-size="16" fill="#01579b"><tspan x="829.92" dy="0.00">Prompts</tspan></text><rect x="24.00" y="34.80" width="124.80" height="54.00" rx="0" ry="0" fill="#e3f2fd" stroke="#0288d1" stroke-width="2" stroke-linejoin="round" stroke-linecap="round"/><text x="86.40" y="65.80" text-anchor="middle" font-family="arial, helvetica, sans-serif" font-size="16" fill="#01579b"><tspan x="86.40" dy="0.00">Raw Audio</tspan></text><rect x="208.80" y="34.80" width="81.60" height="54.00" rx="0" ry="0" fill="#e3f2fd" stroke="#0288d1" stroke-width="2" stroke-linejoin="round" stroke-linecap="round"/><text x="249.60" y="65.80" text-anchor="middle" font-family="arial, helvetica, sans-serif" font-size="16" fill="#01579b"><tspan x="249.60" dy="0.00">CSV</tspan></text><rect x="350.40" y="34.80" width="139.20" height="54.00" rx="0" ry="0" fill="#e3f2fd" stroke="#0288d1" stroke-width="2" stroke-linejoin="round" stroke-linecap="round"/><text x="420.00" y="65.80" text-anchor="middle" font-family="arial, helvetica, sans-serif" font-size="16" fill="#01579b"><tspan x="420.00" dy="0.00">Transcripts</tspan></text><polygon points="626.88,24.00 704.16,61.80 626.88,99.60 549.60,61.80" fill="#fff9c4" stroke="#f9a825" stroke-width="2" stroke-linejoin="round" stroke-linecap="round"/><text x="626.88" y="65.80" text-anchor="middle" font-family="arial, helvetica, sans-serif" font-size="16" fill="#01579b"><tspan x="626.88" dy="0.00">Exists?</tspan></text><rect x="377.64" y="169.30" width="117.60" height="54.00" rx="0" ry="0" fill="#e8f5e9" stroke="#2e7d32" stroke-width="2" stroke-linejoin="round" stroke-linecap="round"/><text x="436.44" y="200.30" text-anchor="middle" font-family="arial, helvetica, sans-serif" font-size="16" fill="#01579b"><tspan x="436.44" dy="0.00">Existing</tspan></text><rect x="581.68" y="169.30" width="110.40" height="54.00" rx="0" ry="0" fill="#e8f5e9" stroke="#2e7d32" stroke-width="2" stroke-linejoin="round" stroke-linecap="round"/><text x="636.88" y="200.30" text-anchor="middle" font-family="arial, helvetica, sans-serif" font-size="16" fill="#01579b"><tspan x="636.88" dy="0.00">Whisper</tspan></text><rect x="945.12" y="34.80" width="96.00" height="54.00" rx="0" ry="0" fill="#fce4ec" stroke="#c62828" stroke-width="2" stroke-linejoin="round" stroke-linecap="round"/><text x="993.12" y="65.80" text-anchor="middle" font-family="arial, helvetica, sans-serif" font-size="16" fill="#01579b"><tspan x="993.12" dy="0.00">Split</tspan></text></svg>