<svg xmlns="http://www.w3.org/2000/svg" width="800" height="828" viewBox="0 0 684.2 708"><rect width="100%" height="100%" fill="#FFFFFF"/><defs><marker id="arrow-0" viewBox="0 0 10 10" refX="5" refY="5" markerUnits="userSpaceOnUse" markerWidth="8" markerHeight="8" orient="auto"><path d="M 0 0 L 10 5 L 0 10 z" fill="#0288d1"/></marker><marker id="arrow-start-0" viewBox="0 0 10 10" refX="4.5" refY="5" markerUnits="userSpaceOnUse" markerWidth="8" markerHeight="8" orient="auto"><path d="M 0 5 L 10 10 L 10 0 z" fill="#0288d1"/></marker></defs><path d="M 166.800,51.000C179.000,51.000,197.300,51.000,203.400,51.000C209.500,51.000,197.300,51.000,203.400,51.000C209.500,51.000,227.800,51.000,240.000,51.000" fill="none" stroke="#0288d1" stroke-width="2" marker-end="url(#arrow-0)"   stroke-linecap="round" stroke-linejoin="round" /><path d="M 166.800,165.000C180.200,165.000,200.300,156.400,207.000,165.000C213.700,173.600,200.300,208.000,207.000,216.600C213.700,225.200,233.800,216.600,247.200,216.600" fill="none" stroke="#0288d1" stroke-width="2" marker-end="url(#arrow-0)"  stroke-dasharray="2" stroke-linecap="round" stroke-linejoin="round" /><path d="M 386.400,51.000C398.033,51.000,415.483,51.000,421.300,51.000C427.117,51.000,415.483,51.000,421.300,51.000C427.117,51.000,444.567,51.000,456.200,51.000" fill="none" stroke="#0288d1" stroke-width="2" marker-end="url(#arrow-0)"   stroke-linecap="round" stroke-linejoin="round" /><path d="M 163.200,279.000C177.200,279.000,198.200,287.600,205.200,279.000C212.200,270.400,198.200,236.000,205.200,227.400C212.200,218.800,233.200,227.400,247.200,227.400" fill="none" stroke="#0288d1" stroke-width="2" marker-end="url(#arrow-0)"   stroke-linecap="round" stroke-linejoin="round" /><path d="M 163.200,393.000C177.200,393.000,198.200,393.000,205.200,393.000C212.200,393.000,198.200,393.000,205.200,393.000C212.200,393.000,233.200,393.000,247.200,393.000" fill="none" stroke="#0288d1" stroke-width="2" marker-end="url(#arrow-0)"   stroke-linecap="round" stroke-linejoin="round" /><path d="M 134.400,621.000C152.600,621.000,179.900,621.000,189.000,621.000C198.100,621.000,179.900,621.000,189.000,621.000C198.100,621.000,225.400,621.000,243.600,621.000" fill="none" stroke="#0288d1" stroke-width="2" marker-end="url(#arrow-0)"   stroke-linecap="round" stroke-linejoin="round" /><rect x="27.60" y="24.00" width="139.20" height="54.00" rx="0" ry="0" fill="#e3f2fd" stroke="#0288d1" stroke-width="2" stroke-linejoin="round" stroke-linecap="round"/><text x="97.20" y="55.00" text-anchor="middle" font-family="arial, helvetica, sans-serif" font-size="16" fill="#01579b"><tspan x="97.20" dy="0.00">Audio Files</tspan></text><rect x="27.60" y="138.00" width="139.20" height="54.00" rx="0" ry="0" fill="#e3f2fd" stroke="#0288d1" stroke-width="2" stroke-linejoin="round" stroke-linecap="round"/><text x="97.20" y="169.00" text-anchor="middle" font-family="arial, helvetica, sans-serif" font-size="16" fill="#01579b"><tspan x="97.20" dy="0.00">Transcripts</tspan></text><rect x="240.00" y="24.00" width="146.40" height="54.00" rx="0" ry="0" fill="#fff3e0" stroke="#ef6c00" stroke-width="2" stroke-linejoin="round" stroke-linecap="round"/><text x="313.20" y="55.00" text-anchor="middle" font-family="arial, helvetica, sans-serif" font-size="16" fill="#01579b"><tspan x="313.20" dy="0.00">Install Deps</tspan></text><rect x="456.20" y="24.00" width="168.00" height="54.00" rx="0" ry="0" fill="#e1f5fe" stroke="#0288d1" stroke-width="1" stroke-linejoin="round" stroke-linecap="round"/><text x="540.20" y="55.00" text-anchor="middle" font-family="arial, helvetica, sans-serif" font-size="16" fill="#01579b"><tspan x="540.20" dy="0.00">Download Models</tspan></text><rect x="31.20" y="252.00" width="132.00" height="54.00" rx="0" ry="0" fill="#e8f5e9" stroke="#2e7d32" stroke-width="2" stroke-linejoin="round" stroke-linecap="round"/><text x="97.20" y="283.00" text-anchor="middle" font-family="arial, helvetica, sans-serif" font-size="16" fill="#01579b"><tspan x="97.20" dy="0.00">Scan Audio</tspan></text><rect x="247.20" y="195.00" width="132.00" height="54.00" rx="0" ry="0" fill="#e1f5fe" stroke="#0288d1" stroke-width="1" stroke-linejoin="round" stroke-linecap="round"/><text x="313.20" y="226.00" text-anchor="middle" font-family="arial, helvetica, sans-serif" font-size="16" fill="#01579b"><tspan x="313.20" dy="0.00">Transcribe</tspan></text><rect x="31.20" y="366.00" width="132.00" height="54.00" rx="0" ry="0" fill="#fce4ec" stroke="#c62828" stroke-width="2" stroke-linejoin="round" stroke-linecap="round"/><text x="97.20" y="397.00" text-anchor="middle" font-family="arial, helvetica, sans-serif" font-size="16" fill="#01579b"><tspan x="97.20" dy="0.00">Load Model</tspan></text><rect x="247.20" y="366.00" width="132.00" height="54.00" rx="0" ry="0" fill="#e1f5fe" stroke="#0288d1" stroke-width="1" stroke-linejoin="round" stroke-linecap="round"/><text x="313.20" y="397.00" text-anchor="middle" font-family="arial, helvetica, sans-serif" font-size="16" fill="#01579b"><tspan x="313.20" dy="0.00">Apply LoRA</tspan></text><rect x="60.00" y="594.00" width="74.40" height="54.00" rx="0" ry="0" fill="#e1f5fe" stroke="#0288d1" stroke-width="1" stroke-linejoin="round" stroke-linecap="round"/><text x="97.20" y="625.00" text-anchor="middle" font-family="arial, helvetica, sans-serif" font-size="16" fill="#01579b"><tspan x="97.20" dy="0.00">D4</tspan></text><rect x="24.00" y="480.00" width="146.40" height="54.00" rx="0" ry="0" fill="#f3e5f5" stroke="#7b1fa2" stroke-width="2" stroke-linejoin="round" stroke-linecap="round"/><text x="97.20" y="511.00" text-anchor="middle" font-family="arial, helvetica, sans-serif" font-size="16" fill="#01579b"><tspan x="97.20" dy="0.00">LoRA Adapter</tspan></text><rect x="243.60" y="594.00" width="139.20" height="54.00" rx="0" ry="0" fill="#f3e5f5" stroke="#7b1fa2" stroke-width="2" stroke-linejoin="round" stroke-linecap="round"/><text x="313.20" y="625.00" text-anchor="middle" font-family="arial, helvetica, sans-serif" font-size="16" fill="#01579b"><tspan x="313.20" dy="0.00">Checkpoints</tspan></text></svg>